<?xml version="1.0" encoding="UTF-8"?>
<svg width="118px" height="38px" viewBox="0 0 118 38" version="1.1" xmlns="http://www.w3.org/2000/svg" xmlns:xlink="http://www.w3.org/1999/xlink">
    <title>appstore</title>
    <g id="Website" stroke="none" stroke-width="1" fill="none" fill-rule="evenodd">
        <g id="11)-UI-/-06)-Footer-2)-Desktop" transform="translate(-1160.000000, -108.000000)" fill-rule="nonzero">
            <g id="appstore" transform="translate(1160.000000, 108.000000)">
                <g id="Group">
                    <g id="Path">
                        <path d="M108.29919,-0.00012249833 L9.37576867,-0.00012249833 C9.01518033,-0.00012249833 8.65891867,-0.00012249833 8.29928417,0.00188458969 C7.99823667,0.00376917939 7.6995885,0.00924391245 7.39565,0.0138517343 C6.73535512,0.0212975631 6.07661303,0.0769631189 5.42514833,0.180364657 C4.77459868,0.286017231 4.14442797,0.485202449 3.55594967,0.771183526 C2.96819109,1.0595839 2.43113927,1.43433062 1.96427717,1.88182877 C1.49496412,2.32806851 1.10375546,2.84386128 0.805694167,3.40937352 C0.506810238,3.97376019 0.299563157,4.57855252 0.191110833,5.20286215 C0.0816274255,5.82638328 0.0227134076,6.4570948 0.0148975,7.08933644 C0.00577216667,7.37824404 0.0048085,7.66811278 -6.87246253e-14,7.95705807 L-6.87246253e-14,29.7375062 C0.0048085,30.0300887 0.00577216667,30.313531 0.0148975,30.6062078 C0.0227158044,31.2384181 0.0816298232,31.8690981 0.191110833,32.4925878 C0.299263687,33.1172625 0.506523022,33.722402 0.805694167,34.2869999 C1.10362012,34.8506834 1.4948838,35.364388 1.96427717,35.8081465 C2.42936908,36.2576344 2.96676803,36.632636 3.55594967,36.9188294 C4.14442351,37.2055759 4.77452627,37.4059467 5.42514833,37.513229 C6.07672378,37.6158023 6.73539812,37.6714904 7.39565,37.6798267 C7.6995885,37.6862344 7.99823667,37.6899093 8.29928417,37.6899093 C8.65890883,37.6917939 9.0152,37.6917939 9.37576867,37.6917939 L108.29919,37.6917939 C108.6526,37.6917939 109.011714,37.6917939 109.365124,37.6899093 C109.664745,37.6899093 109.972037,37.6862344 110.271659,37.6798267 C110.930662,37.6719338 111.588097,37.6162421 112.238325,37.513229 C112.891047,37.4051915 113.523408,37.2048737 114.114722,36.9188294 C114.703372,36.6324704 115.240275,36.2574789 115.704969,35.8081465 C116.173151,35.36265 116.56525,34.8493212 116.866875,34.2869999 C117.163802,33.7219912 117.369088,33.1169001 117.475657,32.4925878 C117.585313,31.8690126 117.646318,31.2384728 117.658164,30.6062078 C117.661999,30.313531 117.661999,30.0300887 117.661999,29.7375062 C117.669669,29.3951705 117.669669,29.0547193 117.669669,28.7068241 L117.669669,8.98584616 C117.669669,8.64076837 117.669669,8.29845149 117.661999,7.95705807 C117.661999,7.66811278 117.661999,7.37824404 117.658164,7.08929875 C117.64632,6.45700236 117.585316,5.82643111 117.475657,5.20282446 C117.368791,4.57887601 117.163517,3.97413161 116.866875,3.40933583 C116.259888,2.27582682 115.29738,1.35315933 114.114722,0.771098719 C113.523406,0.485816486 112.890977,0.286684171 112.238325,0.18027985 C111.588209,0.0764227347 110.930706,0.0207378035 110.271659,0.013719813 C109.972037,0.00912141412 109.664745,0.00359956632 109.365124,0.00176209136 C109.011714,-0.00012249833 108.6526,-0.00012249833 108.29919,-0.00012249833 L108.29919,-0.00012249833 Z" fill="#A6A6A6"></path>
                        <path d="M8.30408283,36.8672859 C8.00448083,36.8672859 7.71211617,36.863611 7.41486433,36.8572033 C6.79908308,36.8495149 6.18474105,36.7981451 5.57687667,36.7035151 C5.0100738,36.6099717 4.46099417,36.4359641 3.947749,36.1872317 C3.43921001,35.9405603 2.97538157,35.6171177 2.57403233,35.2292948 C2.16687366,34.8460401 1.82789546,34.4015302 1.57053083,33.91338 C1.31033027,33.4220572 1.130256,32.8954185 1.03658083,32.351809 C0.935419786,31.7676944 0.880687467,31.1770625 0.872855833,30.5850062 C0.8666215,30.3862762 0.858459833,29.7245967 0.858459833,29.7245967 L0.858459833,7.95705807 C0.858459833,7.95705807 0.8671525,7.30554599 0.872905,7.11413764 C0.88040373,6.52301917 0.934817779,5.93330377 1.03567617,5.35009572 C1.12952424,4.80499708 1.30973792,4.27683967 1.5700785,3.78390746 C1.82649724,3.29609447 2.16359351,2.85125256 2.5682995,2.46662638 C2.97255061,2.0783457 3.43786275,1.75323767 3.94726717,1.50315816 C4.45933275,1.25522494 5.00737469,1.08244476 5.57303183,0.990606304 C6.18289255,0.895025699 6.79936732,0.843350199 7.41728333,0.836013411 L8.30456467,0.824507991 L109.360306,0.824507991 L110.258187,0.836475136 C110.870483,0.843447362 111.481357,0.894661848 112.085614,0.989682855 C112.656997,1.08267329 113.210751,1.25665905 113.728666,1.50591909 C114.749187,2.00990176 115.579566,2.8072499 116.103416,3.78620666 C116.359601,4.27573596 116.537035,4.79958517 116.629696,5.33997548 C116.731755,5.92796876 116.788874,6.52231837 116.800599,7.11828374 C116.803451,7.38514164 116.803451,7.67178773 116.803451,7.95705807 C116.811219,8.31041864 116.811219,8.64675194 116.811219,8.98584616 L116.811219,28.7068241 C116.811219,29.0491598 116.811219,29.3832033 116.803451,29.7199795 C116.803451,30.0264138 116.803451,30.3071234 116.799616,30.596031 C116.788145,31.1813616 116.731978,31.7651025 116.631564,32.3425745 C116.539809,32.8901054 116.360715,33.4208549 116.100564,33.9162069 C115.84138,34.3990587 115.504348,34.8397182 115.10189,35.2219449 C114.70018,35.611852 114.235533,35.9371869 113.725814,36.1854414 C113.209334,36.4360858 112.656395,36.610737 112.085614,36.7035151 C111.477795,36.7986501 110.863394,36.8500232 110.247567,36.8572033 C109.959549,36.863611 109.65796,36.8672859 109.365124,36.8672859 L108.29919,36.8691705 L8.30408283,36.8672859 Z" fill="#000000"></path>
                    </g>
                    <g id="_Group_" transform="translate(8.999273, 8.015713)" fill="#FFFFFF">
                        <g id="_Group_3" transform="translate(0.254530, 0.105153)">
                            <path d="M15.1022621,11.0083605 C15.1237548,9.40978478 15.9983176,7.93318707 17.4195461,7.0958958 C16.5188842,5.8632731 15.0644156,5.10978171 13.4949054,5.06272506 C11.8436528,4.89663617 10.2428353,6.00957119 9.40138709,6.00957119 C8.54365492,6.00957119 7.24811326,5.07921522 5.85302876,5.1067208 C4.01746133,5.16354911 2.34769831,6.13937747 1.45465742,7.67717865 C-0.447109244,10.8323776 0.971437589,15.4694576 2.79317076,18.0198823 C3.70462242,19.2687528 4.76984776,20.6637732 6.16367359,20.6143027 C7.52761592,20.5600925 8.03702192,19.7808617 9.68341692,19.7808617 C11.3145309,19.7808617 11.7924604,20.6143027 13.2145669,20.5828489 C14.6781406,20.560083 15.6002614,19.3284283 16.4797351,18.067732 C17.1346116,17.1778662 17.638538,16.1943706 17.9728481,15.1536758 C16.2345671,14.4491514 15.1042909,12.8169583 15.1022621,11.0083605 L15.1022621,11.0083605 Z" id="_Path_"></path>
                            <path d="M12.4161593,3.38539311 C13.2141604,2.46740185 13.6073053,1.2874796 13.5121039,0.0961998736 C12.2929356,0.218905968 11.1667656,0.777271437 10.3579836,1.66004183 C9.5593485,2.53101346 9.15476181,3.67047752 9.23333542,4.8274623 C10.4688513,4.83965255 11.6419476,4.3081478 12.4161593,3.38539311 L12.4161593,3.38539311 Z" id="_Path_2"></path>
                        </g>
                        <g id="Group" transform="translate(24.459513, 8.743535)">
                            <path d="M8.13844586,8.81430411 L3.48393586,8.81430411 L2.36616119,11.9770696 L0.394695857,11.9770696 L4.80337252,0.275652231 L6.85165586,0.275652231 L11.2603325,11.9770696 L9.25524702,11.9770696 L8.13844586,8.81430411 Z M3.96599536,7.35484958 L7.65546202,7.35484958 L5.83667886,2.22191512 L5.78578152,2.22191512 L3.96599536,7.35484958 Z" id="Shape"></path>
                            <path d="M20.7815755,7.71189452 C20.7815755,10.3630222 19.3008132,12.0663238 17.0662275,12.0663238 C15.9111897,12.1242228 14.8232072,11.544491 14.2650747,10.5737288 L14.2227914,10.5737288 L14.2227914,14.7993369 L12.3953647,14.7993369 L12.3953647,3.44579594 L14.1642437,3.44579594 L14.1642437,4.86476006 L14.197854,4.86476006 C14.7807822,3.90008375 15.8699379,3.32060155 17.0326172,3.35653235 C19.2921304,3.35654177 20.7815755,5.06812613 20.7815755,7.71189452 Z M18.9032515,7.71189452 C18.9032515,5.98466806 17.9717694,4.84911796 16.5505479,4.84911796 C15.1542932,4.84911796 14.2151312,6.00858351 14.2151312,7.71189452 C14.2151312,9.43084762 15.1542932,10.5820304 16.5505479,10.5820304 C17.9717792,10.5820304 18.9032515,9.45477249 18.9032515,7.71189452 Z" id="Shape"></path>
                            <path d="M30.5803349,7.71189452 C30.5803349,10.3630222 29.0995725,12.0663238 26.8649869,12.0663238 C25.709949,12.1242228 24.6219666,11.544491 24.063834,10.5737288 L24.0215507,10.5737288 L24.0215507,14.7993369 L22.194124,14.7993369 L22.194124,3.44579594 L23.9629637,3.44579594 L23.9629637,4.86476006 L23.996574,4.86476006 C24.5795064,3.90008433 25.6686663,3.32060554 26.831347,3.35654177 C29.090929,3.35654177 30.5803349,5.06812613 30.5803349,7.71189452 Z M28.7020207,7.71189452 C28.7020207,5.98466806 27.7705287,4.84911796 26.3493072,4.84911796 C24.9530525,4.84911796 24.0138905,6.00858351 24.0138905,7.71189452 C24.0138905,9.43084762 24.9530525,10.5820304 26.3493072,10.5820304 C27.7705385,10.5820304 28.7020207,9.45477249 28.7020207,7.71189452 L28.7020207,7.71189452 Z" id="Shape"></path>
                            <path d="M37.0565092,8.71675774 C37.1919142,9.87714673 38.3682759,10.6390392 39.97578,10.6390392 C41.5160832,10.6390392 42.6242507,9.87710904 42.6242507,8.83082253 C42.6242507,7.9225728 41.9558889,7.37874617 40.3733417,7.00604972 L38.7907945,6.640722 C36.548529,6.12172485 35.5075724,5.1168522 35.5075724,3.48623924 C35.5075724,1.46729714 37.3436425,0.0805406601 39.9508132,0.0805406601 C42.5310799,0.0805406601 44.299949,1.46729714 44.3594899,3.48623924 L42.5147565,3.48623924 C42.4043282,2.31849092 41.3969819,1.61361668 39.924863,1.61361668 C38.4527442,1.61361668 37.4454077,2.32678312 37.4454077,3.36477743 C37.4454077,4.19204634 38.0888027,4.67883586 39.6627064,5.05148521 L41.0080637,5.36803974 C43.5134495,5.93581007 44.5544062,6.90021116 44.5544062,8.61177667 C44.5544062,10.8009538 42.7346594,12.1720681 39.8403554,12.1720681 C37.1323439,12.1720681 35.3039634,10.8331614 35.1858454,8.71667294 L37.0565092,8.71675774 Z" id="Path"></path>
                            <path d="M48.4983202,1.42685385 L48.4983202,3.44579594 L50.1913055,3.44579594 L50.1913055,4.83255242 L48.4983202,4.83255242 L48.4983202,9.53574389 C48.4983202,10.2663899 48.8373047,10.6068693 49.5815209,10.6068693 C49.7825058,10.6035109 49.9831655,10.5899858 50.182662,10.5663506 L50.182662,11.9448243 C49.8480615,12.004735 49.5079683,12.0318683 49.1676359,12.0258051 C47.3651859,12.0258051 46.66225,11.377054 46.66225,9.72251615 L46.66225,4.83255242 L45.36779,4.83255242 L45.36779,3.44579594 L46.6622304,3.44579594 L46.6622304,1.42685385 L48.4983202,1.42685385 Z" id="Path"></path>
                            <path d="M51.171797,7.71189452 C51.171797,5.02764515 52.8215649,3.34089968 55.3941812,3.34089968 C57.9754312,3.34089968 59.6175192,5.02760745 59.6175192,7.71189452 C59.6175192,10.4035126 57.9840747,12.0828894 55.3941812,12.0828894 C52.8052022,12.0828894 51.171797,10.4035032 51.171797,7.71189452 Z M57.7555185,7.71189452 C57.7555185,5.87055616 56.8749337,4.78378866 55.3941714,4.78378866 C53.913409,4.78378866 53.0337879,5.87883893 53.0337879,7.71189452 C53.0337879,9.5605922 53.913409,10.6390863 55.3941714,10.6390863 C56.8749337,10.6390863 57.7555185,9.5605922 57.7555185,7.71189452 L57.7555185,7.71189452 Z" id="Shape"></path>
                            <path d="M61.1241629,3.44579594 L62.8670917,3.44579594 L62.8670917,4.8978723 L62.909375,4.8978723 C63.1524315,3.96310489 64.0462387,3.31976547 65.0508095,3.35652293 C65.2614042,3.35581831 65.4714178,3.37773469 65.6769175,3.42186165 L65.6769175,5.05983394 C65.4110546,4.98198467 65.133714,4.94624151 64.8558342,4.95401423 C64.3185883,4.93312868 63.7986534,5.13830329 63.4325491,5.51566528 C63.0664448,5.89302727 62.8907473,6.40487573 62.9515895,6.91681439 L62.9515895,11.9770508 L61.1241629,11.9770508 L61.1241629,3.44579594 Z" id="Path"></path>
                            <path d="M74.102442,9.47132861 C73.8566087,11.0200373 72.2826952,12.0828799 70.268976,12.0828799 C67.6790825,12.0828799 66.0715685,10.4200593 66.0715685,7.7523755 C66.0715685,5.0764089 67.687726,3.34089025 70.192158,3.34089025 C72.65529,3.34089025 74.2042367,4.962297 74.2042367,7.54900943 L74.2042367,8.14898741 L67.9162822,8.14898741 L67.9162822,8.25480712 C67.8575746,8.88994364 68.0864397,9.51864071 68.5446616,9.98097813 C69.0028835,10.4433156 69.6462974,10.694732 70.3112397,10.6712751 C71.1980513,10.7508987 72.034141,10.26292 72.3672127,9.47131919 L74.102442,9.47132861 Z M67.9249084,6.92511601 L72.3758464,6.92511601 C72.4090097,6.35439393 72.1922153,5.79629681 71.7776946,5.38527577 C71.3631739,4.97425473 70.7885111,4.74757666 70.192158,4.75985437 C69.5910874,4.7564171 69.0134862,4.98320146 68.5877371,5.38980038 C68.161988,5.79639931 67.9233684,6.34912219 67.9249084,6.92511601 L67.9249084,6.92511601 Z" id="Shape"></path>
                        </g>
                    </g>
                </g>
                <g id="Group" transform="translate(34.650794, 8.341463)" fill="#FFFFFF">
                    <path d="M2.15305622,0.642381933 C2.91549921,0.592629568 3.66229526,0.856404461 4.18789376,1.36110434 C4.71349226,1.86580422 4.96249224,2.55823094 4.86635812,3.24779869 C4.86635812,4.92295678 3.87069861,5.8858706 2.15305622,5.8858706 L0.0701895178,5.8858706 L0.0701895178,0.642381933 L2.15305622,0.642381933 Z M0.965806638,5.14432809 L2.05301383,5.14432809 C2.59789496,5.17394445 3.12844682,4.97873153 3.49735506,4.61289263 C3.86626329,4.24705373 4.03425285,3.74953713 3.95467933,3.25848455 C4.0284635,2.7694698 3.85805471,2.27605868 3.49006117,1.9132032 C3.12206762,1.55034771 2.59499934,1.35602019 2.05301383,1.38337081 L0.965806638,1.38337081 L0.965806638,5.14432809 Z" id="Shape"></path>
                    <path d="M9.77388573,4.8173636 C9.53306406,5.56377404 8.73871846,6.04603815 7.88826258,5.96216554 C7.30799538,5.97609464 6.7503263,5.75738528 6.36321912,5.3640666 C5.97611195,4.97074793 5.79870175,4.44258298 5.87805998,3.91970735 C5.80081259,3.39537999 5.97755946,2.86637122 6.36251064,2.46973177 C6.74746182,2.07309232 7.30273822,1.8478514 7.88448393,1.85236235 C9.09532348,1.85236235 9.82579142,2.60459071 9.82579142,3.84717355 L9.82579142,4.11968058 L6.75296701,4.11968058 L6.75296701,4.1634434 C6.72577428,4.45707621 6.83605933,4.74751687 7.05669964,4.96333694 C7.27733994,5.17915701 7.58786276,5.30033105 7.91190088,5.29705857 C8.33206717,5.34292577 8.74107032,5.15340848 8.94720238,4.81733724 L9.77388573,4.8173636 Z M6.75289936,3.54211683 L8.95090371,3.54211683 C8.97279562,3.27356465 8.86895096,3.00909367 8.66496042,2.81387813 C8.46096989,2.61866258 8.17580471,2.51085763 7.87973887,2.51702993 C7.57967028,2.51361371 7.29080077,2.62053236 7.07865456,2.81353354 C6.86650835,3.00653473 6.74906602,3.2692605 6.75296701,3.54211683 L6.75289936,3.54211683 Z" id="Shape"></path>
                    <path d="M12.5692935,1.85237114 C13.5479733,1.85237114 14.1878309,2.26643946 14.271831,2.96414005 L13.4479309,2.96414005 C13.3686856,2.67364457 13.0562754,2.48828531 12.5692935,2.48828531 C12.089869,2.48828531 11.7256207,2.69510417 11.7256207,3.00404507 C11.7256207,3.24043459 11.9455169,3.38936877 12.4173938,3.48762421 L13.1402657,3.63995045 C13.9679445,3.8145887 14.3558214,4.1381172 14.3558214,4.71953876 C14.3558214,5.46443817 13.5923603,5.96217432 12.5532512,5.96217432 C11.5179497,5.96217432 10.8431661,5.5369456 10.7667233,4.8358178 L11.6264868,4.8358178 C11.7789683,5.17927352 12.1700394,5.38331016 12.5730722,5.32968736 C13.1081811,5.32968736 13.48852,5.11175204 13.48852,4.7954734 C13.48852,4.55947933 13.2846662,4.40672249 12.8486526,4.31232486 L12.089869,4.15227421 C11.2621902,3.97419996 10.8790294,3.63651446 10.8790294,3.0477991 C10.8790294,2.34624948 11.5858977,1.85237114 12.5692935,1.85237114 Z" id="Path"></path>
                    <path d="M18.3620687,3.22201554 C18.2489244,2.79800986 17.8123613,2.51258191 17.3343148,2.55006294 C16.6151732,2.55006294 16.175381,3.05123509 16.175381,3.89439873 C16.175381,4.75214118 16.6189615,5.26447373 17.3343148,5.26447373 C17.8082979,5.31441017 18.2489651,5.03550008 18.3620687,4.61398073 L19.1972951,4.61398073 C19.0824277,5.44724463 18.2580307,6.04535792 17.3390406,5.96217432 C16.7500633,5.97908436 16.1829016,5.75876683 15.7891554,5.36011168 C15.3954092,4.96145652 15.2152206,4.42510627 15.2967533,3.89442509 C15.2193247,3.36766599 15.4012386,2.8366598 15.79396,2.44307944 C16.1866814,2.04949907 16.7502571,1.83338531 17.3343245,1.8523975 C18.2607628,1.77480214 19.0867245,2.38204401 19.1972951,3.2220419 L18.3620687,3.22201554 Z" id="Path"></path>
                    <path d="M20.0495109,4.76673758 C20.0495109,4.05444937 20.6327565,3.64381705 21.6680483,3.58545784 L22.8468032,3.52367142 L22.8468032,3.18211931 C22.8468032,2.7641844 22.5429167,2.52819032 21.9559021,2.52819032 C21.4764776,2.52819032 21.1442754,2.68824097 21.0489491,2.96800665 L20.2175013,2.96800665 C20.3052704,2.28832966 21.0083697,1.85237993 21.9955345,1.85237993 C23.0865203,1.85237993 23.7018506,2.34624948 23.7018506,3.18211931 L23.7018506,5.8858003 L22.8751189,5.8858003 L22.8751189,5.32970493 L22.8071709,5.32970493 C22.5263801,5.73580836 22.0270428,5.97315302 21.5000676,5.95099635 C21.1306453,5.9859379 20.7622077,5.87714498 20.4858393,5.65151319 C20.2094709,5.4258814 20.0509664,5.10446993 20.0495109,4.76673758 L20.0495109,4.76673758 Z M22.8468032,4.42861268 L22.8468032,4.09779038 L21.7841331,4.1595768 C21.1848451,4.19604582 20.9130433,4.38141387 20.9130433,4.73025977 C20.9130433,5.08639948 21.2527932,5.29364894 21.7199927,5.29364894 C21.9965647,5.31910683 22.2726577,5.24141042 22.485068,5.07834606 C22.6974783,4.9152817 22.8280178,4.68081223 22.8468032,4.42861268 L22.8468032,4.42861268 Z M21.4802466,1.26709177 L22.4834537,0.0171624066 L23.4904492,0.0171624066 L22.367369,1.26709177 L21.4802466,1.26709177 Z" id="Shape"></path>
                    <path d="M25.0467017,1.92874516 L25.8734334,1.92874516 L25.8734334,2.53547534 L25.9376124,2.53547534 C26.1274861,2.10337311 26.6020224,1.8318185 27.1125886,1.86309215 C27.2412218,1.86151959 27.3696715,1.87245207 27.4957494,1.89570336 L27.4957494,2.66638592 C27.338141,2.63576225 27.1774891,2.61994625 27.0163249,2.61918711 C26.7298939,2.59579734 26.4459195,2.68348517 26.2343817,2.86064993 C26.0228439,3.03779807 25.9034156,3.28794763 25.9055277,3.54944578 L25.9055277,5.88582666 L25.0467017,5.88582666 L25.0467017,1.92874516 Z" id="Path"></path>
                    <path d="M28.2847236,6.28184502 L29.1638345,6.28184502 C29.2365083,6.5689045 29.5998481,6.75427255 30.179315,6.75427255 C30.894678,6.75427255 31.3184279,6.44533166 31.3184279,5.92226931 L31.3184279,5.16278229 L31.2542682,5.16278229 C30.9796007,5.59627284 30.4607657,5.85305376 29.9113015,5.82744108 C28.8005044,5.82744108 28.1129739,5.04650326 28.1129739,3.86178752 C28.1129739,2.65523431 28.808052,1.86310094 29.9197963,1.86310094 C30.4828826,1.8452708 31.009936,2.1143599 31.2863529,2.56080153 L31.3543009,2.56080153 L31.3543009,1.92875395 L32.1772539,1.92875395 L32.1772539,5.91837635 C32.1772539,6.82332641 31.3977119,7.39744538 30.1670513,7.39744538 C29.0798538,7.39744538 28.37631,6.95421942 28.2847236,6.28184502 Z M31.3344799,3.85792971 C31.3344799,3.06967172 30.8861833,2.56465934 30.154778,2.56465934 C29.4158153,2.56465934 29.0005602,3.06969808 29.0005602,3.85792971 C29.0005602,4.64659194 29.4158153,5.15163068 30.154778,5.15163068 C30.8908994,5.15163068 31.3344799,4.65045854 31.3344799,3.85792971 L31.3344799,3.85792971 Z" id="Shape"></path>
                    <path d="M33.2974832,4.76673758 C33.2974832,4.05444937 33.8807288,3.64381705 34.9160206,3.58545784 L36.0947755,3.52367141 L36.0947755,3.18211931 C36.0947755,2.7641844 35.790889,2.52819032 35.2038744,2.52819032 C34.7244499,2.52819032 34.3922477,2.68824097 34.2969214,2.96800665 L33.4654736,2.96800665 C33.5532427,2.28832965 34.256342,1.85237992 35.2435068,1.85237992 C36.3344926,1.85237992 36.9498229,2.34624948 36.9498229,3.18211931 L36.9498229,5.8858003 L36.1230912,5.8858003 L36.1230912,5.32970493 L36.0551432,5.32970493 C35.7743525,5.73580836 35.2750151,5.97315302 34.7480399,5.95099635 C34.3786176,5.9859379 34.0101801,5.87714498 33.7338117,5.65151319 C33.4574433,5.4258814 33.2989387,5.10446993 33.2974832,4.76673758 L33.2974832,4.76673758 Z M36.0947755,4.42861268 L36.0947755,4.09779038 L35.0321054,4.1595768 C34.4328174,4.19604582 34.1610157,4.38141387 34.1610157,4.73025977 C34.1610157,5.08639948 34.5007655,5.29364894 34.967965,5.29364894 C35.244537,5.31910683 35.52063,5.24141042 35.7330403,5.07834606 C35.9454506,4.9152817 36.0759901,4.68081223 36.0947755,4.42861268 Z" id="Shape"></path>
                    <polygon id="Path" points="38.334316 0.384023126 39.1931324 0.384023126 39.1931324 5.88578272 38.334316 5.88578272"></polygon>
                    <path d="M40.3869825,3.90555913 C40.3123635,3.19628955 40.6863787,2.50986964 41.3521673,2.13418204 C42.0179558,1.75849444 42.8604048,1.75849444 43.5261933,2.13418204 C44.1919818,2.50986964 44.5659971,3.19628955 44.4913781,3.90555913 C44.5674168,4.61559087 44.1937429,5.30334212 43.5273641,5.6798385 C42.8609852,6.05633488 42.0173754,6.05633488 41.3509965,5.6798385 C40.6846176,5.30334212 40.3109438,4.61559087 40.3869825,3.90555913 L40.3869825,3.90555913 Z M43.6080247,3.90555913 C43.6080247,3.04781667 43.1842651,2.54621393 42.4405961,2.54621393 C41.6940858,2.54621393 41.2741436,3.04781667 41.2741436,3.90556791 C41.2741436,4.77018236 41.6941148,5.26791851 42.4405961,5.26791851 C43.1842748,5.26791851 43.6080247,4.76673758 43.6080247,3.90555913 L43.6080247,3.90555913 Z" id="Shape"></path>
                    <path d="M51.6846887,4.8173636 C51.4438671,5.56377404 50.6495215,6.04603815 49.7990656,5.96216554 C49.2187984,5.97609464 48.6611293,5.75738528 48.2740221,5.3640666 C47.886915,4.97074793 47.7095048,4.44258298 47.788863,3.91970735 C47.7116156,3.39537999 47.8883625,2.86637122 48.2733137,2.46973177 C48.6582648,2.07309232 49.2135412,1.8478514 49.7952869,1.85236235 C51.0061265,1.85236235 51.7365944,2.60459071 51.7365944,3.84717355 L51.7365944,4.11968058 L48.6637217,4.11968058 L48.6637217,4.1634434 C48.636529,4.45707621 48.746814,4.74751687 48.9674543,4.96333694 C49.1880946,5.17915701 49.4986175,5.30033105 49.8226556,5.29705857 C50.2428219,5.34292577 50.651825,5.15340848 50.8579571,4.81733724 L51.6846887,4.8173636 Z M48.6637024,3.54211683 L50.8616874,3.54211683 C50.8835793,3.27356465 50.7797346,3.00909367 50.5757441,2.81387813 C50.3717536,2.61866258 50.0865884,2.51085763 49.7905226,2.51702993 C49.490449,2.51360654 49.2015719,2.62052203 48.9894194,2.813524 C48.7772668,3.00652598 48.6598205,3.26925587 48.6637217,3.54211683 L48.6637024,3.54211683 Z" id="Shape"></path>
                    <path d="M52.8898652,1.92874516 L53.7165968,1.92874516 L53.7165968,2.55735675 L53.7807759,2.55735675 C54.0039528,2.09453238 54.5254527,1.81141817 55.0793845,1.85236235 C55.5082919,1.8230393 55.9285908,1.97265729 56.2216099,2.25897172 C56.5146291,2.54528615 56.6485705,2.93722659 56.5856158,3.32412878 L56.5856158,5.88574757 L55.7267994,5.88574757 L55.7267994,3.52023542 C55.7267994,2.88433003 55.4229129,2.56808655 54.7877617,2.56808655 C54.4968403,2.5557654 54.2145089,2.65958649 54.014786,2.85233113 C53.815063,3.04507578 53.7178677,3.30752089 53.7486815,3.57086144 L53.7486815,5.88579151 L52.8898652,5.88579151 L52.8898652,1.92874516 Z" id="Path"></path>
                    <path d="M63.9544645,4.8173636 C63.7136428,5.56377404 62.9192972,6.04603815 62.0688414,5.96216554 C61.4885742,5.97609464 60.9309051,5.75738528 60.5437979,5.3640666 C60.1566907,4.97074793 59.9792805,4.44258298 60.0586388,3.91970735 C59.9813914,3.39537999 60.1581382,2.86637122 60.5430894,2.46973177 C60.9280406,2.07309232 61.483317,1.8478514 62.0650627,1.85236235 C63.2759023,1.85236235 64.0063702,2.60459071 64.0063702,3.84717355 L64.0063702,4.11968058 L60.9334975,4.11968058 L60.9334975,4.1634434 C60.9063047,4.45707621 61.0165898,4.74751687 61.2372301,4.96333694 C61.4578704,5.17915701 61.7683932,5.30033105 62.0924313,5.29705857 C62.5125976,5.34292577 62.9216008,5.15340848 63.1277328,4.81733724 L63.9544645,4.8173636 Z M60.9334781,3.54211683 L63.1314825,3.54211683 C63.1533744,3.27356465 63.0495297,3.00909367 62.8455392,2.81387813 C62.6415487,2.61866258 62.3563835,2.51085763 62.0603177,2.51702993 C61.7602407,2.51360176 61.4713586,2.62051514 61.2592019,2.81351764 C61.0470451,3.00652015 60.9295962,3.26925279 60.9334975,3.54211683 L60.9334781,3.54211683 Z" id="Shape"></path>
                    <polygon id="Path" points="65.1992926 0.384023126 66.0581089 0.384023126 66.0581089 5.88578272 65.1992926 5.88578272"></polygon>
                </g>
            </g>
        </g>
    </g>
</svg>