<?xml version="1.0" encoding="UTF-8"?>
<svg width="133px" height="40px" viewBox="0 0 133 40" version="1.1" xmlns="http://www.w3.org/2000/svg" xmlns:xlink="http://www.w3.org/1999/xlink">
    <title>playstore</title>
    <defs>
        <linearGradient x1="62.0240344%" y1="4.94615078%" x2="24.4418697%" y2="71.8787395%" id="linearGradient-1">
            <stop stop-color="#00A0FF" offset="0%"></stop>
            <stop stop-color="#00A1FF" offset="1%"></stop>
            <stop stop-color="#00BEFF" offset="26%"></stop>
            <stop stop-color="#00D2FF" offset="51%"></stop>
            <stop stop-color="#00DFFF" offset="76%"></stop>
            <stop stop-color="#00E3FF" offset="100%"></stop>
        </linearGradient>
        <linearGradient x1="107.571288%" y1="49.9415205%" x2="-130.383481%" y2="49.9415205%" id="linearGradient-2">
            <stop stop-color="#FFE000" offset="0%"></stop>
            <stop stop-color="#FFBD00" offset="41%"></stop>
            <stop stop-color="#FFA500" offset="78%"></stop>
            <stop stop-color="#FF9C00" offset="100%"></stop>
        </linearGradient>
        <linearGradient x1="86.01315%" y1="33.0227142%" x2="-49.9701136%" y2="126.457301%" id="linearGradient-3">
            <stop stop-color="#FF3A44" offset="0%"></stop>
            <stop stop-color="#C31162" offset="100%"></stop>
        </linearGradient>
        <linearGradient x1="-19.0533253%" y1="-8.11488296%" x2="41.8813661%" y2="35.9957215%" id="linearGradient-4">
            <stop stop-color="#32A071" offset="0%"></stop>
            <stop stop-color="#2DA771" offset="7%"></stop>
            <stop stop-color="#15CF74" offset="48%"></stop>
            <stop stop-color="#06E775" offset="80%"></stop>
            <stop stop-color="#00F076" offset="100%"></stop>
        </linearGradient>
    </defs>
    <g id="Website" stroke="none" stroke-width="1" fill="none" fill-rule="evenodd">
        <g id="11)-UI-/-06)-Footer-2)-Desktop" transform="translate(-1012.000000, -107.000000)" fill-rule="nonzero">
            <g id="playstore" transform="translate(1012.000000, 107.000000)">
                <path d="M9.35760337,0.640788791 C8.99771367,0.640788791 8.64214225,0.640788791 8.28320453,0.642700954 C7.9827403,0.644613117 7.68467076,0.650167951 7.38132113,0.654843189 C6.72230555,0.662397958 6.06483976,0.718877955 5.41463726,0.823792357 C4.76534802,0.930990732 4.13639826,1.13309022 3.54906011,1.42325548 C2.9624403,1.71587543 2.426429,2.09610506 1.96047143,2.55015054 C1.49206767,3.0029192 1.10161697,3.52625852 0.804133156,4.10004476 C0.505828307,4.67268895 0.298982761,5.28632997 0.190740561,5.91977386 C0.0814692746,6.5524177 0.022669401,7.19235715 0.0148686365,7.83384909 C0.00576098325,8.12698369 0.00479918366,8.4210935 0,8.71426634 L0,30.8133835 C0.00479918366,31.1102468 0.00576098325,31.3978362 0.0148686365,31.6947951 C0.0226717931,32.3362552 0.0814716677,32.9761627 0.190740561,33.6087747 C0.298683872,34.2425889 0.505541647,34.8565822 0.804133156,35.4294408 C1.10148189,36.0013715 1.4919875,36.5225921 1.96047143,36.9728432 C2.42466224,37.4289075 2.96102,37.8093958 3.54906011,38.0997765 C4.1363938,38.3907184 4.76527575,38.5940208 5.41463726,38.7028727 C6.06495029,38.8069467 6.72234847,38.8634497 7.38132113,38.8719079 C7.68467076,38.8784093 7.9827403,38.882138 8.28320453,38.882138 C8.64213243,38.8840502 8.99773329,38.8840502 9.35760337,38.8840502 L123.647677,39.0067462 C124.000402,39.0067462 124.35882,39.0067462 124.711545,39.0048341 C125.010586,39.0048341 125.317282,39.0011054 125.616323,38.994604 C126.27405,38.9865956 126.930211,38.930089 127.57918,38.8255688 C128.230636,38.7159506 128.861773,38.512702 129.451941,38.2224726 C130.039451,37.9319238 130.575313,37.5514458 131.039107,37.0955392 C131.506382,36.6435248 131.897721,36.1226854 132.198762,35.5521368 C132.495113,34.9788615 132.700002,34.3649173 132.806364,33.7314708 C132.915808,33.098772 132.976694,32.4590068 132.988517,31.8174911 C132.992345,31.5205322 132.992345,31.2329429 132.992345,30.9360796 C133,30.5887351 133,30.2433029 133,29.8903176 L133,9.88080266 C133,9.53067604 133,9.18335074 132.992345,8.8369624 C132.992345,8.54378956 132.992345,8.24967976 132.988517,7.95650691 C132.976697,7.31495942 132.91581,6.6751623 132.806364,6.04243168 C132.699705,5.40935426 132.494829,4.79576186 132.198762,4.22270258 C131.59295,3.07260923 130.632308,2.13644222 129.451941,1.54586549 C128.861771,1.25640931 128.230567,1.05436349 127.57918,0.946402372 C126.930323,0.841025726 126.274094,0.784526071 125.616323,0.7774054 C125.317282,0.772739722 125.010586,0.767137085 124.711545,0.765272726 C124.35882,0.763360562 124.000402,0.763360562 123.647677,0.763360562 L9.35760337,0.640788791 Z" id="Path" fill="#A6A6A6"></path>
                <path d="M8.36467072,38.8796405 C8.06604309,38.8796405 7.77462925,38.875837 7.47834414,38.8692054 C6.86456553,38.8612481 6.25222148,38.808082 5.64633399,38.710143 C5.08137448,38.6133287 4.53408057,38.4332365 4.02250458,38.1758066 C3.51561946,37.9205098 3.05329949,37.5857573 2.65325552,37.1843732 C2.247421,36.7877172 1.90954523,36.3276639 1.65301761,35.8224445 C1.39366328,35.3139415 1.21417464,34.7688876 1.12080413,34.2062695 C1.01997207,33.6017301 0.965417757,32.9904453 0.957611593,32.3776864 C0.951397535,32.1720073 0.943262411,31.4871907 0.943262411,31.4871907 L0.943262411,8.95849997 C0.943262411,8.95849997 0.951926808,8.28420627 0.957660599,8.08610488 C0.965134942,7.47431659 1.01937202,6.86398044 1.1199024,6.26037918 C1.21344527,5.6962199 1.39307285,5.14959426 1.65256675,4.63942553 C1.90815157,4.13455504 2.24415152,3.67415821 2.64754133,3.27608269 C3.05047774,2.87422488 3.51427658,2.5377487 4.02202431,2.27892459 C4.53242456,2.02232181 5.07868415,1.84349997 5.64250166,1.74845017 C6.25037898,1.64952737 6.86484886,1.59604492 7.48075528,1.58845158 L8.36515099,1.57654385 L124.630056,1.70169912 L125.525018,1.71408472 C126.135322,1.72130075 126.74421,1.77430607 127.346501,1.8726497 C127.916026,1.96889176 128.467979,2.14896133 128.984209,2.40693732 C130.001412,2.92854291 130.82909,3.75377216 131.351236,4.7669604 C131.606588,5.27360722 131.783445,5.81577403 131.875805,6.37506032 C131.977532,6.98361415 132.034466,7.59874656 132.046152,8.21555122 C132.048995,8.49174043 132.048995,8.78840976 132.048995,9.08365524 C132.056738,9.44937187 132.056738,9.79746584 132.056738,10.1484173 L132.056738,30.5589846 C132.056738,30.9132908 132.056738,31.259015 132.048995,31.6075673 C132.048995,31.9247168 132.048995,32.2152421 132.045172,32.514252 C132.033739,33.12005 131.977754,33.7242028 131.877667,34.3218674 C131.78621,34.888544 131.607699,35.4378523 131.348394,35.9505255 C131.090053,36.4502613 130.754117,36.9063295 130.352968,37.3019216 C129.952564,37.7054627 129.489429,38.0421737 128.981367,38.2991089 C128.466567,38.5585178 127.915427,38.739276 127.346501,38.8352983 C126.74066,38.9337599 126.128257,38.9869294 125.514432,38.9943606 C125.227351,39.0009923 124.926743,39.0047957 124.634859,39.0047957 L123.572392,39.0067462 L8.36467072,38.8796405 Z" id="Path" fill="#000000"></path>
                <path d="M66.4850947,22.1225493 C65.3600113,22.1037409 64.2753179,22.5402212 63.4787198,23.3323137 C62.6821216,24.1244061 62.2416444,25.2044697 62.2578775,26.3258565 C62.2470963,27.4447199 62.6896464,28.520605 63.4853372,29.3099379 C64.281028,30.0992709 65.3625649,30.5352949 66.4850947,30.5192968 C67.6076245,30.5352949 68.6891613,30.0992709 69.4848521,29.3099379 C70.280543,28.520605 70.723093,27.4447199 70.7123118,26.3258565 C70.728545,25.2044697 70.2880678,24.1244061 69.4914696,23.3323137 C68.6948714,22.5402212 67.610178,22.1037409 66.4850947,22.1225493 L66.4850947,22.1225493 Z M66.4850947,28.8616545 C65.8302489,28.8463924 65.2091794,28.5688579 64.7621113,28.0917129 C64.3150432,27.6145678 64.0796725,26.9780443 64.1091412,26.3258565 C64.074125,25.6712848 64.3073167,25.0306029 64.7552695,24.5506534 C65.2032222,24.070704 65.827527,23.7926395 66.4850947,23.7801916 C67.1426624,23.7926395 67.7669672,24.070704 68.2149199,24.5506534 C68.6628726,25.0306029 68.8960643,25.6712848 68.8610481,26.3258565 C68.8905169,26.9780443 68.6551462,27.6145678 68.2080781,28.0917129 C67.76101,28.5688579 67.1399405,28.8463924 66.4850947,28.8616545 L66.4850947,28.8616545 Z M57.2683753,22.1225493 C56.143292,22.1037409 55.0585986,22.5402212 54.2620004,23.3323137 C53.4654022,24.1244061 53.024925,25.2044697 53.0411582,26.3258565 C53.030377,27.4447199 53.472927,28.520605 54.2686179,29.3099379 C55.0643087,30.0992709 56.1458455,30.5352949 57.2683753,30.5192968 C58.3909051,30.5352949 59.472442,30.0992709 60.2681328,29.3099379 C61.0638236,28.520605 61.5063737,27.4447199 61.4955925,26.3258565 C61.5120659,25.1992278 61.0675507,24.1144832 60.2644371,23.3214835 C59.4613234,22.5284839 58.3688564,22.0956024 57.2386759,22.1225493 L57.2683753,22.1225493 Z M57.2683753,28.8616545 C56.6135295,28.8463924 55.99246,28.5688579 55.5453919,28.0917129 C55.0983238,27.6145678 54.8629531,26.9780443 54.8924219,26.3258565 C54.8574056,25.6712848 55.0905974,25.0306029 55.5385501,24.5506534 C55.9865028,24.070704 56.6108076,23.7926395 57.2683753,23.7801916 C57.925943,23.7926395 58.5502478,24.070704 58.9982005,24.5506534 C59.4461532,25.0306029 59.679345,25.6712848 59.6443288,26.3258565 C59.6738861,26.9830892 59.4345014,27.6241285 58.9809973,28.1021671 C58.5274932,28.5802056 57.89872,28.8542913 57.2386759,28.8616545 L57.2683753,28.8616545 Z M46.2696909,23.4151156 L46.2696909,25.1911609 L50.5464071,25.1911609 C50.4793492,26.027682 50.1304614,26.8170262 49.5564265,27.4309513 C48.6874595,28.3098261 47.4869169,28.7827158 46.2498913,28.7333845 C44.9950006,28.7334848 43.7923521,28.2326209 42.9106085,27.3426824 C42.028865,26.4527438 41.5414985,25.2478855 41.5573832,23.9972638 C41.5414985,22.7466421 42.028865,21.5417838 42.9106085,20.6518452 C43.7923521,19.7619066 44.9950006,19.2610428 46.2498913,19.261143 C47.4484628,19.2478454 48.6041695,19.7050481 49.4673282,20.5339755 L50.7345034,19.2808769 C49.5419227,18.106828 47.925957,17.4597447 46.2498913,17.4850978 C42.6227855,17.479367 39.6658119,20.38253 39.6170213,23.9972638 C39.6657652,27.6136008 42.6211731,30.5196231 46.2498913,30.5192967 C47.9627544,30.5874817 49.6232972,29.9233171 50.8137018,28.6939169 C51.8508805,27.5581572 52.4046433,26.0651342 52.3580716,24.5300774 C52.3640045,24.1560056 52.3308261,23.7823354 52.2590735,23.4151156 L46.2696909,23.4151156 Z M91.1257117,24.7964842 C90.5971409,23.2465986 89.1634987,22.1827899 87.5221824,22.1225405 C86.4257894,22.1202383 85.3775048,22.5710848 84.627011,23.3677055 C83.8765172,24.1643261 83.4909918,25.2354144 83.56226,26.3258565 C83.537947,27.4401238 83.9693048,28.5163403 84.7572182,29.3072189 C85.5451316,30.0980976 86.6218527,30.5356352 87.7399781,30.5192967 C89.1458743,30.5249223 90.459869,29.8237326 91.2346096,28.6544492 L89.7991377,27.6677574 C89.3637116,28.3910952 88.5763877,28.8303817 87.7300783,28.8221868 C86.8497463,28.8568624 86.0374109,28.3523062 85.6808184,27.5493544 L91.313808,25.2602293 L91.1257117,24.7964842 Z M85.3838243,26.2469212 C85.3405001,25.6297371 85.5496777,25.0213563 85.9637029,24.5603782 C86.3777282,24.0994 86.9613397,23.8250846 87.5815812,23.7999254 C88.2343445,23.7570552 88.8498121,24.1064734 89.1457505,24.6879481 L85.3838243,26.2469212 Z M80.8002141,30.3120915 L82.6514778,30.3120915 L82.6514778,17.9784437 L80.8002141,17.9784437 L80.8002141,30.3120915 Z M77.7708735,23.1092412 L77.7114746,23.1092412 C77.1518451,22.4740162 76.3420404,22.1136972 75.4939181,22.1225493 C73.2161131,22.1922412 71.412375,24.0645279 71.4349977,26.3357234 C71.4177865,28.5922026 73.2111304,30.4496824 75.4741185,30.5192967 C76.3239155,30.5362863 77.1370058,30.1745054 77.691675,29.5326049 L77.7510739,29.5326049 L77.7510739,30.1936884 C77.7510739,31.8019961 76.8897907,32.660418 75.5038179,32.660418 C74.5730692,32.6282515 73.7512556,32.0459647 73.4149589,31.1803803 L71.8012905,31.8414638 C72.4217737,33.3500348 73.8976833,34.333307 75.5335173,34.3279492 C77.7015748,34.3279492 79.5429387,33.0550947 79.5429387,29.9568824 L79.5429387,22.4185569 L77.7708735,22.4185569 L77.7708735,23.1092412 Z M75.652315,28.9109891 C75.0026552,28.8932021 74.3875937,28.6152499 73.9460802,28.1399252 C73.5045668,27.6646004 73.2738534,27.032008 73.306061,26.385058 C73.2711154,25.734529 73.5000075,25.097305 73.9412611,24.6166931 C74.3825147,24.1360812 74.9990869,23.8524284 75.652315,23.8295262 C76.2948253,23.8594065 76.8974402,24.1487114 77.3213931,24.6308217 C77.7453459,25.1129319 77.9540951,25.7462928 77.899571,26.385058 C77.9345764,27.0113639 77.7167204,27.6255962 77.2945666,28.0908322 C76.8724129,28.5560683 76.2810544,28.8336337 75.652315,28.8616545 L75.652315,28.9109891 Z M99.788042,17.9784437 L95.3628287,17.9784437 L95.3628287,30.3120915 L97.1744932,30.3120915 L97.1744932,25.6351722 L99.7484427,25.6351722 C101.928192,25.6904597 103.742655,23.9790617 103.807363,21.8068079 C103.769402,19.6308405 101.971342,17.8961357 99.788042,17.9291091 L99.788042,17.9784437 Z M99.788042,23.8985946 L97.1744932,23.8985946 L97.1744932,19.6755536 L99.7979418,19.6755536 C100.366781,19.6676547 100.915331,19.8859993 101.322219,20.2822762 C101.729106,20.6785532 101.960787,21.2200929 101.965999,21.7870741 C101.934082,22.9387795 100.993481,23.8588143 99.837541,23.8689939 L99.788042,23.8985946 Z M111.202518,22.1324162 C109.825171,22.0503619 108.530251,22.7906265 107.905883,24.0169976 L109.549251,24.697815 C109.8812,24.0916107 110.542001,23.7390627 111.232218,23.7999254 C111.706941,23.7446654 112.184038,23.8817913 112.556345,24.1805025 C112.928651,24.4792137 113.164955,24.9144677 113.212179,25.3884993 L113.212179,25.5167692 C112.620489,25.1944201 111.95601,25.0280032 111.281717,25.0332902 C109.519551,25.0332902 107.717787,26.019982 107.717787,27.8157612 C107.753117,28.5850934 108.099167,29.307471 108.677208,29.8185456 C109.255249,30.3296202 110.016124,30.5859307 110.786726,30.5291637 C111.733016,30.5834292 112.634614,30.1228007 113.14288,29.3253996 L113.212179,29.3253996 L113.212179,30.3120915 L114.994144,30.3120915 L114.994144,25.5858376 C114.994144,23.2868457 113.370576,22.1028155 111.252017,22.1028155 L111.202518,22.1324162 Z M111.034222,28.8616545 C110.430333,28.8616545 109.57895,28.5656469 109.57895,27.8157612 C109.57895,26.8290693 110.628329,26.4935941 111.558911,26.4935941 C112.150129,26.4792866 112.734484,26.6223358 113.251778,26.9080047 C113.107961,28.0209214 112.160057,28.8560176 111.034222,28.8616545 Z M121.508216,22.3692223 L119.389658,27.717092 L119.330259,27.717092 L117.132502,22.3692223 L115.152541,22.3692223 L118.449176,29.8483463 L116.568213,34.0023189 L118.488775,34.0023189 L123.567376,22.3692223 L121.508216,22.3692223 Z M104.866642,30.2627569 L106.717906,30.2627569 L106.717906,17.9291091 L104.866642,17.9291091 L104.866642,30.2627569 Z" id="Shape" fill="#FFFFFF"></path>
                <path d="M9.91333672,7.30515894 C9.56025423,7.69931544 9.38204062,8.2039042 9.41502287,8.71607004 L9.41502287,31.0084654 C9.38204062,31.5206313 9.56025423,32.02522 9.91333672,32.4193765 L10,32.5 L23,19.9698976 L23,19.6776374 L10,7.23461339 L9.91333672,7.30515894 Z" id="Path" fill="url(#linearGradient-1)"></path>
                <path d="M26.4688522,24.0346653 L22.5,20 L22.6382979,19.6809417 L26.4781272,15.6128697 L26.5616017,15.66212 L31.0970522,18.4004348 C32.3955452,19.178589 32.3955452,20.4590959 31.0970522,21.2471002 L26.5987015,23.985415 L26.4688522,24.0346653 Z" id="Path" fill="url(#linearGradient-2)"></path>
                <path d="M22.5,20 L9.82542344,32.0412517 C10.4259394,32.5669834 11.320946,32.596684 11.9559486,32.1119528 L26.9618106,23.7288256 L22.5,20 Z" id="Path" fill="url(#linearGradient-3)"></path>
                <path d="M26.9618106,15.9280459 L11.9610547,7.54341676 C11.3283427,7.05166294 10.4282721,7.07720802 9.82542344,7.60402854 L22.5,20 L26.9618106,15.9280459 Z" id="Path" fill="url(#linearGradient-4)"></path>
                <path d="M26.2867444,24.0346653 L12.3695362,31.9888425 C11.8022606,32.419505 11.0198409,32.419505 10.4525654,31.9888425 L10.4525654,31.9888425 L10.3758865,32.0659739 L10.3758865,32.0659739 L10.4525654,32.1334639 L10.4525654,32.1334639 C11.0198409,32.5641265 11.8022606,32.5641265 12.3695362,32.1334639 L26.4113475,24.1310796 L26.2867444,24.0346653 Z" id="Path" fill="#000000" opacity="0.2"></path>
                <path d="M9.14217563,32.2525142 C8.83701712,31.7863939 8.68198536,31.1905772 8.70827492,30.5849507 L8.70827492,30.7649036 C8.6771068,31.3786446 8.83243104,31.9841744 9.14217563,32.4564608 L9.21763662,32.3604859 L9.14217563,32.2525142 Z" id="Path" fill="#000000" opacity="0.12"></path>
                <path d="M31.1434332,21.7295665 L26.4113475,24.859811 L26.4965251,24.9704203 L31.1245049,21.8954805 C31.6626484,21.5970872 32.0235034,20.9855683 32.070922,20.291645 L32.070922,20.291645 C31.9658697,20.9113375 31.6242618,21.4409453 31.1434332,21.7295665 L31.1434332,21.7295665 Z" id="Path" fill="#000000" opacity="0.12"></path>
                <path d="M11.9283392,7.64542663 L31.088357,18.1261967 C31.593183,18.3708025 31.9548312,18.82341 32.070922,19.35589 L32.070922,19.35589 C32.0202888,18.7652592 31.6455402,18.2457483 31.088357,17.9937682 L11.9283392,7.51299813 C10.5527482,6.75626383 9.43262411,7.38056963 9.43262411,8.89403823 L9.43262411,9.03592592 C9.43262411,7.52245731 10.6018765,6.89815151 11.9283392,7.64542663 Z" id="Path" fill="#FFFFFF" opacity="0.25"></path>
                <path d="M39.6170213,13.7385024 L39.6170213,8.12968652 L41.7952005,8.12968652 C42.7442609,8.0951143 43.6695001,8.37547942 44.3557196,8.90557271 C44.9933323,9.45154299 45.3243555,10.1851699 45.2710183,10.9340944 C45.3120242,11.6884802 44.9638796,12.4228681 44.3093754,12.9626162 C43.6231558,13.4927095 42.6979167,13.7730746 41.7488562,13.7385024 L39.6170213,13.7385024 Z M40.5091479,13.0467484 L41.7952005,13.0467484 C42.4984332,13.0778188 43.1875299,12.8790115 43.7069003,12.4952149 C44.1981175,12.07519 44.4536803,11.5106842 44.4136499,10.9340944 C44.4518299,10.3605201 44.1963037,9.79947474 43.7069003,9.38232206 C43.1893935,8.99513247 42.5000787,8.79289152 41.7952005,8.82144047 L40.5091479,8.82144047 L40.5091479,13.0467484 Z" id="Shape" stroke="#FFFFFF" stroke-width="0.2" fill="#FFFFFF"></path>
                <polygon id="Path" stroke="#FFFFFF" stroke-width="0.2" fill="#FFFFFF" points="46.3283333 13.7413596 46.3283333 8.12682927 47.0546454 8.12682927 47.0546454 13.7413596"></polygon>
                <path d="M50.5104158,13.740036 C49.9856353,13.7333979 49.4759633,13.6016375 49.049592,13.3623838 C48.5732191,13.1079036 48.2365668,12.7227823 48.106383,12.2833775 L48.9115614,12.0226177 C49.0102502,12.3153374 49.2185287,12.5783455 49.509694,12.7779221 C49.7844526,12.9717671 50.1403251,13.0804854 50.5104158,13.0836405 C50.8656229,13.091552 51.2139532,13.006064 51.4996351,12.8408641 C51.7677238,12.6970624 51.9237641,12.4564926 51.9137268,12.2024521 C51.9323721,11.9295499 51.7773935,11.6670602 51.4996351,11.501098 C51.104734,11.294815 50.6696608,11.1399465 50.2113495,11.0425204 C49.695638,10.9396122 49.2185954,10.7423698 48.819541,10.4670504 C48.5090229,10.2317401 48.338104,9.9058622 48.3479365,9.56787849 C48.3484027,9.17916142 48.5619772,8.80924273 48.9345665,8.55181427 C49.355635,8.26188841 49.9037998,8.11046046 50.4644056,8.12920349 C50.9765169,8.10802638 51.4817186,8.22905145 51.8907217,8.4708888 C52.2219819,8.65559827 52.471281,8.91648726 52.6038798,9.21720145 L51.7987014,9.4779613 C51.7185651,9.29043866 51.5658133,9.12703764 51.3616045,9.01039192 C51.113529,8.85679179 50.8036899,8.7771188 50.4874107,8.78559895 C50.1719731,8.78158524 49.8640071,8.8607766 49.613217,9.01039192 C49.3836824,9.1396126 49.24691,9.34676446 49.2451354,9.56787849 C49.2478328,9.76758872 49.3716189,9.95444621 49.5787093,10.0714147 C49.8761205,10.2380947 50.2063785,10.3656599 50.556426,10.4490669 C50.850344,10.5154667 51.1385012,10.5965592 51.4191172,10.6918433 C51.6636999,10.7795702 51.8951517,10.8881278 52.1092702,11.0155452 C52.3365066,11.1425925 52.518603,11.3127906 52.6383875,11.5100897 C52.7621618,11.7279849 52.8249112,11.9640484 52.8224283,12.2024521 C52.8276351,12.4459394 52.7565532,12.6867248 52.6153824,12.9038061 C52.4888565,13.1006315 52.298476,13.2680578 52.06326,13.389359 C51.8385256,13.5124574 51.5899784,13.6065682 51.3270968,13.6681022 C51.0608599,13.7232762 50.7856834,13.7475139 50.5104158,13.740036 L50.5104158,13.740036 Z" id="Path" stroke="#FFFFFF" stroke-width="0.2" fill="#FFFFFF"></path>
                <path d="M54.5927561,13.7413596 L53.822695,13.7413596 L53.822695,8.12697717 L55.7722167,8.12697717 C56.2491231,8.12107506 56.710017,8.2920175 57.058901,8.60419968 C57.4130336,8.90789348 57.609265,9.34629132 57.5950195,9.8019346 C57.6090643,10.2548405 57.4126156,10.690295 57.058901,10.9903122 C56.710017,11.3024944 56.2491231,11.4734368 55.7722167,11.4675347 L54.5927561,11.4675347 L54.5927561,13.7413596 Z M54.5927561,10.7750942 L55.8501976,10.7750942 C56.137221,10.7877311 56.4154317,10.6781636 56.6105111,10.4756605 C56.7944875,10.2954611 56.8991956,10.054224 56.902956,9.8019346 C56.9044805,9.54861945 56.7989676,9.30552802 56.6105111,9.12820871 C56.417232,8.92224822 56.1387713,8.80915518 55.8501976,8.81941767 L54.5927561,8.81941767 L54.5927561,10.7750942 Z" id="Shape" stroke="#FFFFFF" stroke-width="0.2" fill="#FFFFFF"></path>
                <path d="M63.3819597,12.9338713 C62.8518331,13.4630082 62.1220308,13.7549569 61.3646485,13.7408726 C60.6072662,13.7549569 59.8774639,13.4630082 59.3473373,12.9338713 C58.8132465,12.4012641 58.5221959,11.6800366 58.5404129,10.9343014 C58.5160917,10.190162 58.8082464,9.46944522 59.3473373,8.94369816 C59.8713725,8.40477749 60.6044208,8.10827194 61.3646485,8.12773016 C62.1246619,8.10940173 62.85726,8.40572519 63.3819597,8.94369816 C63.9171033,9.47263902 64.2113483,10.1903567 64.1980537,10.9343014 C64.2127881,11.6811494 63.9185125,12.4021749 63.3819597,12.9338713 L63.3819597,12.9338713 Z M59.8791739,12.4765706 C60.2697128,12.8732042 60.8108096,13.0939426 61.3738181,13.0863049 C61.9372546,13.0961224 62.4792065,12.8750352 62.8684623,12.4765706 C63.282581,12.0677048 63.5049988,11.5093574 63.4828252,10.9343014 C63.5049988,10.3592454 63.282581,9.80089797 62.8684623,9.39203222 C62.4792065,8.9935676 61.9372546,8.7724804 61.3738181,8.78229789 C60.8108096,8.77466023 60.2697128,8.9953986 59.8791739,9.39203222 C59.4711916,9.80414835 59.2526443,10.3610923 59.2739806,10.9343014 C59.2526443,11.5075105 59.4711916,12.0644545 59.8791739,12.4765706 Z" id="Shape" stroke="#FFFFFF" stroke-width="0.2" fill="#FFFFFF"></path>
                <polygon id="Path" stroke="#FFFFFF" stroke-width="0.2" fill="#FFFFFF" points="65.141844 13.7413596 65.141844 8.12682927 66.1014399 8.12682927 69.072104 12.4968054 69.072104 12.4968054 69.072104 11.4113295 69.072104 8.12682927 69.858156 8.12682927 69.858156 13.7413596 69.0414786 13.7413596 65.9789383 9.16551738 65.9789383 9.16551738 65.9789383 10.2416357 65.9789383 13.7413596"></polygon>
                <polygon id="Path" stroke="#FFFFFF" stroke-width="0.2" fill="#FFFFFF" points="70.853156 13.7413596 70.853156 8.12682927 71.5794681 8.12682927 71.5794681 13.7413596"></polygon>
                <path d="M72.6879433,13.731734 L72.6879433,8.12696444 L75.190005,8.12696444 C75.7110903,8.12155371 76.2147736,8.27875779 76.596694,8.56600472 C76.9862527,8.83654261 77.206165,9.23398352 77.1962664,9.6495935 C77.2006548,9.90276785 77.1079987,10.1508115 76.9310709,10.359531 C76.7700338,10.5848109 76.5232757,10.7617825 76.2277264,10.8639602 L76.2277264,10.8639602 C76.5638678,10.9509441 76.8581179,11.1207549 77.0694338,11.3497069 C77.2894789,11.5757034 77.4074707,11.855886 77.4038107,12.1437159 C77.4157284,12.5796977 77.1875398,12.9973629 76.7811778,13.2833524 C76.3809818,13.5850531 75.8518769,13.7491484 75.3053073,13.7410753 L72.6879433,13.731734 Z M73.5757716,10.5276741 L75.190005,10.5276741 C75.4959996,10.542015 75.7932958,10.4422317 75.9971216,10.2567769 C76.1926432,10.1015552 76.3045393,9.89003096 76.3084381,9.66827607 C76.3040294,9.44844332 76.1969002,9.23814128 76.0086519,9.07977526 C75.8123822,8.90338018 75.5289577,8.80742049 75.2361259,8.81821935 L73.5757716,8.81821935 L73.5757716,10.5276741 Z M73.5757716,13.0404791 L75.3629585,13.0404791 C75.6955835,13.0561557 76.0172702,12.9414846 76.2277264,12.7322167 C76.4310219,12.5613879 76.54645,12.3342809 76.5505731,12.0970095 C76.5435574,11.8629841 76.4283387,11.6396226 76.2277264,11.4711436 C76.0029452,11.2799359 75.6887774,11.1747324 75.3629585,11.1815638 L73.5757716,11.1815638 L73.5757716,13.0404791 Z" id="Shape" stroke="#FFFFFF" stroke-width="0.2" fill="#FFFFFF"></path>
                <polygon id="Path" stroke="#FFFFFF" stroke-width="0.2" fill="#FFFFFF" points="78.3475177 13.7413596 78.3475177 8.12682927 79.2096092 8.12682927 79.2096092 13.0489009 82.1205674 13.0489009 82.1205674 13.7413596"></polygon>
                <polygon id="Path" stroke="#FFFFFF" stroke-width="0.2" fill="#FFFFFF" points="86.8368794 8.81928801 83.8939007 8.81928801 83.8939007 10.5972226 86.5458156 10.5972226 86.5458156 11.2709663 83.8939007 11.2709663 83.8939007 13.0489009 86.8368794 13.0489009 86.8368794 13.7413596 83.0638298 13.7413596 83.0638298 8.12682927 86.8368794 8.12682927"></polygon>
                <polygon id="Path" stroke="#FFFFFF" stroke-width="0.2" fill="#FFFFFF" points="93.4397163 8.81928801 90.4967376 8.81928801 90.4967376 10.5972226 93.1486525 10.5972226 93.1486525 11.2709663 90.4967376 11.2709663 90.4967376 13.0489009 93.4397163 13.0489009 93.4397163 13.7413596 89.6666667 13.7413596 89.6666667 8.12682927 93.4397163 8.12682927"></polygon>
                <polygon id="Path" stroke="#FFFFFF" stroke-width="0.2" fill="#FFFFFF" points="94.4397163 13.7413596 94.4397163 8.12682927 95.3993123 8.12682927 98.3699764 12.4968054 98.3699764 12.4968054 98.3699764 11.4113295 98.3699764 8.12682927 99.1560284 8.12682927 99.1560284 13.7413596 98.339351 13.7413596 95.2768107 9.16551738 95.2768107 9.16551738 95.2768107 10.2416357 95.2768107 13.7413596"></polygon>
            </g>
        </g>
    </g>
</svg>