<?xml version="1.0" encoding="UTF-8"?>
<svg width="26px" height="26px" viewBox="0 0 26 26" version="1.1" xmlns="http://www.w3.org/2000/svg" xmlns:xlink="http://www.w3.org/1999/xlink">
    <title>facebook-icon</title>
    <g id="Website" stroke="none" stroke-width="1" fill="none" fill-rule="evenodd">
        <g id="11)-UI-/-06)-Footer-2)-Desktop" transform="translate(-625.000000, -116.000000)">
            <g id="facebook-icon" transform="translate(625.000000, 116.000000)">
                <path d="M26,13.0168242 C26,5.8620145 20.179707,0.0619047619 13,0.0619047619 C5.82029297,0.0619047619 0,5.8620145 0,13.0168242 C0,19.482999 4.75391211,24.8424896 10.96875,25.8142857 L10.96875,16.7616056 L7.66796875,16.7616056 L7.66796875,13.0168242 L10.96875,13.0168242 L10.96875,10.1626935 C10.96875,6.91586683 12.9095586,5.12242017 15.879043,5.12242017 C17.3013496,5.12242017 18.7890625,5.37544594 18.7890625,5.37544594 L18.7890625,8.56357065 L17.149793,8.56357065 C15.534873,8.56357065 15.03125,9.56218746 15.03125,10.5866888 L15.03125,13.0168242 L18.6367188,13.0168242 L18.0603516,16.7616056 L15.03125,16.7616056 L15.03125,25.8142857 C21.2460879,24.8424896 26,19.482999 26,13.0168242" id="Fill-1" fill="#0D0D0D"></path>
                <path d="M18.05921,16.7497457 L18.6330209,13.0138234 L15.0435429,13.0138234 L15.0435429,10.589437 C15.0435429,9.56735932 15.5449323,8.57110495 17.1526898,8.57110495 L18.784689,8.57110495 L18.784689,5.39052242 C18.784689,5.39052242 17.3035743,5.13809524 15.8875758,5.13809524 C12.9312867,5.13809524 10.9990605,6.92729912 10.9990605,10.1664448 L10.9990605,13.0138234 L7.71291866,13.0138234 L7.71291866,16.7497457 L10.9990605,16.7497457 L10.9990605,25.7810098 C11.6580078,25.8842778 12.3333353,25.9380952 13.0213017,25.9380952 C13.7092681,25.9380952 14.3846209,25.8842778 15.0435429,25.7810098 L15.0435429,16.7497457 L18.05921,16.7497457 Z" id="Fill-3" fill="#FFFFFF"></path>
            </g>
        </g>
    </g>
</svg>