<?xml version="1.0" encoding="UTF-8"?>
<svg width="26px" height="26px" viewBox="0 0 26 26" version="1.1" xmlns="http://www.w3.org/2000/svg" xmlns:xlink="http://www.w3.org/1999/xlink">
    <title>linkedin-icon</title>
    <g id="Website" stroke="none" stroke-width="1" fill="none" fill-rule="evenodd">
        <g id="11)-UI-/-06)-Footer-2)-Desktop" transform="translate(-789.000000, -116.000000)">
            <g id="linkedin-icon" transform="translate(789.000000, 116.000000)">
                <rect id="Rectangle" fill="#0D0D0D" x="0" y="0" width="26" height="26" rx="6"></rect>
                <path d="M20.7963167,19.0666667 L20.7963167,19.0660528 L20.8,19.0660528 L20.8,13.6626028 C20.8,11.0191972 20.230925,8.98292778 17.1406083,8.98292778 C15.6549972,8.98292778 14.6580417,9.79817222 14.2510333,10.5710583 L14.2080611,10.5710583 L14.2080611,9.22971111 L11.2779694,9.22971111 L11.2779694,19.0660528 L14.3289972,19.0660528 L14.3289972,14.1954583 C14.3289972,12.9130444 14.5720972,11.6729889 16.1602278,11.6729889 C17.7250306,11.6729889 17.7483583,13.1365 17.7483583,14.2777194 L17.7483583,19.0666667 L20.7963167,19.0666667 Z" id="Path" fill="#FFFFFF" fill-rule="nonzero"></path>
                <polygon id="Path" fill="#FFFFFF" fill-rule="nonzero" points="6.30976667 9.230325 9.36447778 9.230325 9.36447778 19.0666667 6.30976667 19.0666667"></polygon>
                <path d="M7.83589444,4.33333333 C6.85919722,4.33333333 6.06666667,5.12586389 6.06666667,6.10256111 C6.06666667,7.07925833 6.85919722,7.88836389 7.83589444,7.88836389 C8.81259167,7.88836389 9.60512222,7.07925833 9.60512222,6.10256111 C9.60450833,5.12586389 8.81197778,4.33333333 7.83589444,4.33333333 Z" id="Path" fill="#FFFFFF" fill-rule="nonzero"></path>
            </g>
        </g>
    </g>
</svg>