<?xml version="1.0" encoding="UTF-8"?>
<svg width="80px" height="80px" viewBox="0 0 80 80" version="1.1" xmlns="http://www.w3.org/2000/svg" xmlns:xlink="http://www.w3.org/1999/xlink">
    <title>sin-enganche</title>
    <g id="Website" stroke="none" stroke-width="1" fill="none" fill-rule="evenodd">
        <g id="Préstamo" transform="translate(-901.000000, -930.000000)">
            <g id="sin-enganche" transform="translate(901.000000, 930.000000)">
                <rect id="Rectangle-Copy-47" fill="#00C574" x="0" y="0" width="80" height="80" rx="27"></rect>
                <path d="M53,29 C54.3807119,29 55.6307119,29.5596441 56.5355339,30.4644661 C57.4403559,31.3692881 58,32.6192881 58,34 L58,34 L58,46 C58,47.3807119 57.4403559,48.6307119 56.5355339,49.5355339 C55.6307119,50.4403559 54.3807119,51 53,51 L53,51 L30,51 C28.6192881,51 27.3692881,50.4403559 26.4644661,49.5355339 C25.5596441,48.6307119 25,47.3807119 25,46 L25,46 L25,34 C25,32.6192881 25.5596441,31.3692881 26.4644661,30.4644661 C27.3692881,29.5596441 28.6192881,29 30,29 L30,29 Z" id="Rectangle-Copy-53" stroke="#FFFFFF" stroke-width="2"></path>
                <rect id="Rectangle-Copy-55" fill="#FFFFFF" x="28" y="33" width="5" height="2" rx="1"></rect>
                <path d="M52.1598482,46.9705035 L52.1598482,47.7029043 C52.1598482,47.8668692 52.0219732,48 51.8517455,48 L51.1998017,48 C51.0297622,48 50.8918871,47.8668692 50.8918871,47.7029043 L50.8918871,46.9427529 C49.9602433,46.7483166 49.2426537,46.204548 49.0124231,45.4436711 C48.9612608,45.2746276 49.0733665,45.0985104 49.2524347,45.0651371 L50.1411925,44.900628 C50.2922343,44.8726959 50.443088,44.9581246 50.4886074,45.0999615 C50.6511231,45.6063663 51.085815,45.8203913 51.6070315,45.8203913 C52.1312575,45.8203913 52.4845034,45.5726302 52.4845034,45.232004 C52.4845034,44.975174 52.3028018,44.8097581 51.9409034,44.7266874 L50.7295595,44.4691319 C49.6331428,44.2391457 49.089919,43.696284 49.089919,42.8323849 C49.089919,41.8485955 49.7949061,41.1956379 50.8918871,41.0211531 L50.8918871,40.2970957 C50.8918871,40.1331308 51.0297622,40 51.1998017,40 L51.8517455,40 C52.0219732,40 52.1598482,40.1331308 52.1598482,40.2970957 L52.1598482,41.0490852 C53.0536846,41.241889 53.6918973,41.7669758 53.8937253,42.5122543 C53.9403733,42.6847439 53.8299604,42.861768 53.6475064,42.8918766 L52.8037038,43.0311742 C52.6489001,43.0569297 52.4999274,42.9637019 52.4581699,42.8176933 C52.3210472,42.3363185 51.9121246,42.1339016 51.4541087,42.1339016 C50.9874404,42.1339016 50.6627851,42.3816628 50.6627851,42.7124946 C50.6627851,42.9611626 50.8157079,43.1267599 51.1302059,43.1909674 L52.3601714,43.4575918 C53.4565881,43.696284 54,44.2580089 54,45.1405899 C54,46.1610175 53.2374552,46.8139751 52.1598482,46.9705035" id="Fill-3-Copy-12" fill="#FFFFFF"></path>
                <line x1="21" y1="53" x2="62" y2="27" id="Stroke-7-Copy-5" stroke="#FFFFFF" stroke-width="2" stroke-linecap="round"></line>
            </g>
        </g>
    </g>
</svg>