<?xml version="1.0" encoding="UTF-8"?>
<svg width="80px" height="80px" viewBox="0 0 80 80" version="1.1" xmlns="http://www.w3.org/2000/svg" xmlns:xlink="http://www.w3.org/1999/xlink">
    <title>sin-avales</title>
    <g id="Website" stroke="none" stroke-width="1" fill="none" fill-rule="evenodd">
        <g id="Préstamo" transform="translate(-1149.000000, -930.000000)">
            <g id="sin-avales" transform="translate(1149.000000, 930.000000)">
                <rect id="Rectangle-Copy-54" fill="#F9713D" x="0" y="0" width="80" height="80" rx="27"></rect>
                <path d="M51,26 C52.3807119,26 53.6307119,26.5596441 54.5355339,27.4644661 C55.4403559,28.3692881 56,29.6192881 56,31 L56,31 L56,51 C56,52.3807119 55.4403559,53.6307119 54.5355339,54.5355339 C53.6307119,55.4403559 52.3807119,56 51,56 L51,56 L30,56 C28.6192881,56 27.3692881,55.4403559 26.4644661,54.5355339 C25.5596441,53.6307119 25,52.3807119 25,51 L25,51 L25,31 C25,29.6192881 25.5596441,28.3692881 26.4644661,27.4644661 C27.3692881,26.5596441 28.6192881,26 30,26 L30,26 Z" id="Rectangle-Copy-57" stroke="#FFFFFF" stroke-width="2"></path>
                <rect id="Rectangle-Copy-58" fill="#FFFFFF" x="29" y="33" width="11" height="2" rx="1"></rect>
                <rect id="Rectangle-Copy-59" fill="#FFFFFF" x="29" y="37" width="7" height="2" rx="1"></rect>
                <line x1="22" y1="59" x2="59" y2="23" id="Stroke-7-Copy-7" stroke="#FFFFFF" stroke-width="2" stroke-linecap="round"></line>
                <circle id="Oval-Copy-2" fill="#FFFFFF" cx="48" cy="44" r="2"></circle>
                <path d="M46,47 L49,47 C50.1045695,47 51,47.8954305 51,49 L51,50 L51,50 L44,50 L44,49 C44,47.8954305 44.8954305,47 46,47 Z" id="Rectangle-Copy-60" fill="#FFFFFF"></path>
            </g>
        </g>
    </g>
</svg>