<?xml version="1.0" encoding="UTF-8"?>
<svg width="26px" height="26px" viewBox="0 0 26 26" version="1.1" xmlns="http://www.w3.org/2000/svg" xmlns:xlink="http://www.w3.org/1999/xlink">
    <title>twitter-icon</title>
    <g id="Website" stroke="none" stroke-width="1" fill="none" fill-rule="evenodd">
        <g id="11)-UI-/-06)-Footer-2)-Desktop" transform="translate(-680.000000, -116.000000)" fill-rule="nonzero">
            <g id="twitter-icon" transform="translate(680.000000, 116.000000)">
                <g id="Dark_Blue" fill="#0D0D0D">
                    <circle id="Oval" cx="13" cy="13" r="13"></circle>
                </g>
                <g id="Logo__x2014__FIXED" transform="translate(5.785000, 7.410000)" fill="#FFFFFF">
                    <path d="M4.836,12.4475 C10.6015,12.4475 13.754,7.67 13.754,3.5295 C13.754,3.393 13.754,3.2565 13.7475,3.1265 C14.3585,2.6845 14.8915,2.132 15.314,1.5015 C14.755,1.7485 14.1505,1.9175 13.5135,1.9955 C14.1635,1.6055 14.6575,0.9945 14.8915,0.26 C14.287,0.6175 13.6175,0.8775 12.9025,1.0205 C12.3305,0.4095 11.518,0.0325 10.6145,0.0325 C8.8855,0.0325 7.4815,1.4365 7.4815,3.1655 C7.4815,3.4125 7.5075,3.653 7.566,3.8805 C4.9595,3.7505 2.652,2.5025 1.105,0.6045 C0.8385,1.066 0.6825,1.6055 0.6825,2.1775 C0.6825,3.263 1.235,4.225 2.08,4.784 C1.5665,4.771 1.0855,4.628 0.663,4.394 C0.663,4.407 0.663,4.42 0.663,4.433 C0.663,5.954 1.742,7.215 3.1785,7.5075 C2.9185,7.579 2.639,7.618 2.353,7.618 C2.1515,7.618 1.9565,7.5985 1.7615,7.5595 C2.158,8.8075 3.315,9.711 4.6865,9.737 C3.614,10.5755 2.262,11.076 0.793,11.076 C0.5395,11.076 0.2925,11.063 0.0455,11.0305 C1.417,11.9275 3.068,12.4475 4.836,12.4475" id="Path"></path>
                </g>
            </g>
        </g>
    </g>
</svg>