<?xml version="1.0" encoding="UTF-8"?>
<svg width="26px" height="18px" viewBox="0 0 26 18" version="1.1" xmlns="http://www.w3.org/2000/svg" xmlns:xlink="http://www.w3.org/1999/xlink">
    <title>youtube-icon</title>
    <defs>
        <polygon id="path-1" points="4.43181818e-05 0 26 0 26 17.999971 4.43181818e-05 17.999971"></polygon>
    </defs>
    <g id="Website" stroke="none" stroke-width="1" fill="none" fill-rule="evenodd">
        <g id="11)-UI-/-06)-Footer-2)-Desktop" transform="translate(-735.000000, -121.000000)">
            <g id="youtube-icon" transform="translate(735.000000, 121.000000)">
                <g id="Group-3">
                    <mask id="mask-2" fill="white">
                        <use xlink:href="#path-1"></use>
                    </mask>
                    <g id="Clip-2"></g>
                    <path d="M25.4567034,2.81072903 C25.1577034,1.70430968 24.2768057,0.833051613 23.1579193,0.537358065 C21.1305102,-2.90322581e-05 13.0000443,-2.90322581e-05 13.0000443,-2.90322581e-05 C13.0000443,-2.90322581e-05 4.86957841,-2.90322581e-05 2.84202159,0.537358065 C1.72328295,0.833051613 0.8422375,1.70430968 0.5432375,2.81072903 C4.43181818e-05,4.8159871 4.43181818e-05,8.99997097 4.43181818e-05,8.99997097 C4.43181818e-05,8.99997097 4.43181818e-05,13.1838097 0.5432375,15.1893581 C0.8422375,16.2956323 1.72328295,17.1668903 2.84202159,17.462729 C4.86957841,17.999971 13.0000443,17.999971 13.0000443,17.999971 C13.0000443,17.999971 21.1305102,17.999971 23.1579193,17.462729 C24.2768057,17.1668903 25.1577034,16.2956323 25.4567034,15.1893581 C26.0000443,13.1838097 26.0000443,8.99997097 26.0000443,8.99997097 C26.0000443,8.99997097 26.0000443,4.8159871 25.4567034,2.81072903" id="Fill-1" fill="#0D0D0D" mask="url(#mask-2)"></path>
                </g>
                <polygon id="Fill-4" fill="#FFFFFF" points="10.3409091 12.7987113 17.1363636 9.00013065 10.3409091 5.20125968"></polygon>
            </g>
        </g>
    </g>
</svg>